<mxfile host="Electron" modified="2024-04-17T09:54:26.636Z" agent="Mozilla/5.0 (Windows NT 10.0; Win64; x64) AppleWebKit/537.36 (KHTML, like Gecko) draw.io/23.1.5 Chrome/120.0.6099.109 Electron/28.1.0 Safari/537.36" etag="E10QC9BYz0eEGdc8js0b" version="23.1.5" type="device">
  <diagram name="Pagina-1" id="x4oI-A71pSC9P3GRFgyb">
    <mxGraphModel dx="656" dy="393" grid="1" gridSize="10" guides="1" tooltips="1" connect="1" arrows="1" fold="1" page="1" pageScale="1" pageWidth="827" pageHeight="1169" math="0" shadow="0">
      <root>
        <mxCell id="0" />
        <mxCell id="1" parent="0" />
        <mxCell id="xs68yqe_Edm3CKneV39_-5" style="edgeStyle=orthogonalEdgeStyle;rounded=0;orthogonalLoop=1;jettySize=auto;html=1;entryX=0;entryY=0.5;entryDx=0;entryDy=0;" edge="1" parent="1" source="xs68yqe_Edm3CKneV39_-2" target="xs68yqe_Edm3CKneV39_-4">
          <mxGeometry relative="1" as="geometry" />
        </mxCell>
        <mxCell id="xs68yqe_Edm3CKneV39_-24" style="edgeStyle=orthogonalEdgeStyle;rounded=0;orthogonalLoop=1;jettySize=auto;html=1;entryX=0;entryY=0.5;entryDx=0;entryDy=0;" edge="1" parent="1" source="xs68yqe_Edm3CKneV39_-2" target="xs68yqe_Edm3CKneV39_-22">
          <mxGeometry relative="1" as="geometry" />
        </mxCell>
        <mxCell id="xs68yqe_Edm3CKneV39_-25" style="edgeStyle=orthogonalEdgeStyle;rounded=0;orthogonalLoop=1;jettySize=auto;html=1;entryX=0;entryY=0.5;entryDx=0;entryDy=0;" edge="1" parent="1" source="xs68yqe_Edm3CKneV39_-2" target="xs68yqe_Edm3CKneV39_-20">
          <mxGeometry relative="1" as="geometry" />
        </mxCell>
        <mxCell id="xs68yqe_Edm3CKneV39_-26" style="edgeStyle=orthogonalEdgeStyle;rounded=0;orthogonalLoop=1;jettySize=auto;html=1;entryX=0;entryY=0.5;entryDx=0;entryDy=0;" edge="1" parent="1" source="xs68yqe_Edm3CKneV39_-2" target="xs68yqe_Edm3CKneV39_-12">
          <mxGeometry relative="1" as="geometry" />
        </mxCell>
        <mxCell id="xs68yqe_Edm3CKneV39_-27" style="edgeStyle=orthogonalEdgeStyle;rounded=0;orthogonalLoop=1;jettySize=auto;html=1;entryX=0;entryY=0.5;entryDx=0;entryDy=0;" edge="1" parent="1" source="xs68yqe_Edm3CKneV39_-2" target="xs68yqe_Edm3CKneV39_-11">
          <mxGeometry relative="1" as="geometry" />
        </mxCell>
        <mxCell id="xs68yqe_Edm3CKneV39_-28" style="edgeStyle=orthogonalEdgeStyle;rounded=0;orthogonalLoop=1;jettySize=auto;html=1;entryX=0;entryY=0.5;entryDx=0;entryDy=0;" edge="1" parent="1" source="xs68yqe_Edm3CKneV39_-2" target="xs68yqe_Edm3CKneV39_-10">
          <mxGeometry relative="1" as="geometry" />
        </mxCell>
        <mxCell id="xs68yqe_Edm3CKneV39_-29" style="edgeStyle=orthogonalEdgeStyle;rounded=0;orthogonalLoop=1;jettySize=auto;html=1;entryX=0;entryY=0.5;entryDx=0;entryDy=0;" edge="1" parent="1" source="xs68yqe_Edm3CKneV39_-2" target="xs68yqe_Edm3CKneV39_-9">
          <mxGeometry relative="1" as="geometry" />
        </mxCell>
        <mxCell id="xs68yqe_Edm3CKneV39_-30" style="edgeStyle=orthogonalEdgeStyle;rounded=0;orthogonalLoop=1;jettySize=auto;html=1;entryX=0;entryY=0.5;entryDx=0;entryDy=0;" edge="1" parent="1" source="xs68yqe_Edm3CKneV39_-2" target="xs68yqe_Edm3CKneV39_-8">
          <mxGeometry relative="1" as="geometry" />
        </mxCell>
        <mxCell id="xs68yqe_Edm3CKneV39_-38" style="edgeStyle=orthogonalEdgeStyle;rounded=0;orthogonalLoop=1;jettySize=auto;html=1;entryX=0;entryY=0.5;entryDx=0;entryDy=0;" edge="1" parent="1" source="xs68yqe_Edm3CKneV39_-2" target="xs68yqe_Edm3CKneV39_-34">
          <mxGeometry relative="1" as="geometry" />
        </mxCell>
        <mxCell id="xs68yqe_Edm3CKneV39_-39" style="edgeStyle=orthogonalEdgeStyle;rounded=0;orthogonalLoop=1;jettySize=auto;html=1;entryX=0;entryY=0.5;entryDx=0;entryDy=0;" edge="1" parent="1" source="xs68yqe_Edm3CKneV39_-2" target="xs68yqe_Edm3CKneV39_-36">
          <mxGeometry relative="1" as="geometry" />
        </mxCell>
        <mxCell id="xs68yqe_Edm3CKneV39_-2" value="Impiegato" style="rounded=0;whiteSpace=wrap;html=1;sketch=1;curveFitting=1;jiggle=2;shadow=1;" vertex="1" parent="1">
          <mxGeometry x="80" y="80" width="150" height="80" as="geometry" />
        </mxCell>
        <mxCell id="xs68yqe_Edm3CKneV39_-6" style="edgeStyle=orthogonalEdgeStyle;rounded=0;orthogonalLoop=1;jettySize=auto;html=1;entryX=1;entryY=0.5;entryDx=0;entryDy=0;endArrow=doubleBlock;endFill=1;" edge="1" parent="1" source="xs68yqe_Edm3CKneV39_-3" target="xs68yqe_Edm3CKneV39_-4">
          <mxGeometry relative="1" as="geometry" />
        </mxCell>
        <mxCell id="xs68yqe_Edm3CKneV39_-33" style="edgeStyle=orthogonalEdgeStyle;rounded=0;orthogonalLoop=1;jettySize=auto;html=1;entryX=0;entryY=0.5;entryDx=0;entryDy=0;" edge="1" parent="1" source="xs68yqe_Edm3CKneV39_-3" target="xs68yqe_Edm3CKneV39_-31">
          <mxGeometry relative="1" as="geometry" />
        </mxCell>
        <mxCell id="xs68yqe_Edm3CKneV39_-3" value="Reparto" style="rounded=0;whiteSpace=wrap;html=1;sketch=1;curveFitting=1;jiggle=2;shadow=1;" vertex="1" parent="1">
          <mxGeometry x="540" y="80" width="150" height="80" as="geometry" />
        </mxCell>
        <mxCell id="xs68yqe_Edm3CKneV39_-4" value="Lavorare" style="rhombus;whiteSpace=wrap;html=1;sketch=1;curveFitting=1;jiggle=2;" vertex="1" parent="1">
          <mxGeometry x="339" y="80" width="89" height="80" as="geometry" />
        </mxCell>
        <mxCell id="xs68yqe_Edm3CKneV39_-7" value="" style="endArrow=none;html=1;rounded=0;" edge="1" parent="1">
          <mxGeometry width="50" height="50" relative="1" as="geometry">
            <mxPoint x="520" y="150" as="sourcePoint" />
            <mxPoint x="520" y="90" as="targetPoint" />
          </mxGeometry>
        </mxCell>
        <mxCell id="xs68yqe_Edm3CKneV39_-8" value="" style="ellipse;whiteSpace=wrap;html=1;aspect=fixed;gradientColor=default;fillColor=default;" vertex="1" parent="1">
          <mxGeometry x="200" y="200" width="10" height="10" as="geometry" />
        </mxCell>
        <mxCell id="xs68yqe_Edm3CKneV39_-9" value="" style="ellipse;whiteSpace=wrap;html=1;aspect=fixed;" vertex="1" parent="1">
          <mxGeometry x="200" y="220" width="10" height="10" as="geometry" />
        </mxCell>
        <mxCell id="xs68yqe_Edm3CKneV39_-10" value="" style="ellipse;whiteSpace=wrap;html=1;aspect=fixed;" vertex="1" parent="1">
          <mxGeometry x="200" y="240" width="10" height="10" as="geometry" />
        </mxCell>
        <mxCell id="xs68yqe_Edm3CKneV39_-11" value="" style="ellipse;whiteSpace=wrap;html=1;aspect=fixed;" vertex="1" parent="1">
          <mxGeometry x="200" y="260" width="10" height="10" as="geometry" />
        </mxCell>
        <mxCell id="xs68yqe_Edm3CKneV39_-12" value="" style="ellipse;whiteSpace=wrap;html=1;aspect=fixed;" vertex="1" parent="1">
          <mxGeometry x="200" y="280" width="10" height="10" as="geometry" />
        </mxCell>
        <mxCell id="xs68yqe_Edm3CKneV39_-13" value="Matricola" style="text;html=1;align=center;verticalAlign=middle;resizable=0;points=[];autosize=1;strokeColor=none;fillColor=none;" vertex="1" parent="1">
          <mxGeometry x="208" y="190" width="70" height="30" as="geometry" />
        </mxCell>
        <mxCell id="xs68yqe_Edm3CKneV39_-14" value="Nome" style="text;html=1;align=center;verticalAlign=middle;resizable=0;points=[];autosize=1;strokeColor=none;fillColor=none;" vertex="1" parent="1">
          <mxGeometry x="205" y="210" width="60" height="30" as="geometry" />
        </mxCell>
        <mxCell id="xs68yqe_Edm3CKneV39_-17" value="Cognome" style="text;html=1;align=center;verticalAlign=middle;resizable=0;points=[];autosize=1;strokeColor=none;fillColor=none;" vertex="1" parent="1">
          <mxGeometry x="205" y="230" width="80" height="30" as="geometry" />
        </mxCell>
        <mxCell id="xs68yqe_Edm3CKneV39_-18" value="DataNascita" style="text;html=1;align=center;verticalAlign=middle;resizable=0;points=[];autosize=1;strokeColor=none;fillColor=none;" vertex="1" parent="1">
          <mxGeometry x="206" y="250" width="90" height="30" as="geometry" />
        </mxCell>
        <mxCell id="xs68yqe_Edm3CKneV39_-19" value="Ruolo" style="text;html=1;align=center;verticalAlign=middle;resizable=0;points=[];autosize=1;strokeColor=none;fillColor=none;" vertex="1" parent="1">
          <mxGeometry x="209" y="270" width="50" height="30" as="geometry" />
        </mxCell>
        <mxCell id="xs68yqe_Edm3CKneV39_-20" value="" style="ellipse;whiteSpace=wrap;html=1;aspect=fixed;" vertex="1" parent="1">
          <mxGeometry x="200" y="300" width="10" height="10" as="geometry" />
        </mxCell>
        <mxCell id="xs68yqe_Edm3CKneV39_-21" value="Reparto" style="text;html=1;align=center;verticalAlign=middle;resizable=0;points=[];autosize=1;strokeColor=none;fillColor=none;" vertex="1" parent="1">
          <mxGeometry x="205" y="290" width="70" height="30" as="geometry" />
        </mxCell>
        <mxCell id="xs68yqe_Edm3CKneV39_-22" value="" style="ellipse;whiteSpace=wrap;html=1;aspect=fixed;" vertex="1" parent="1">
          <mxGeometry x="200" y="320" width="10" height="10" as="geometry" />
        </mxCell>
        <mxCell id="xs68yqe_Edm3CKneV39_-23" value="IndirizzoResidenza" style="text;html=1;align=center;verticalAlign=middle;resizable=0;points=[];autosize=1;strokeColor=none;fillColor=none;" vertex="1" parent="1">
          <mxGeometry x="209" y="310" width="120" height="30" as="geometry" />
        </mxCell>
        <mxCell id="xs68yqe_Edm3CKneV39_-31" value="" style="ellipse;whiteSpace=wrap;html=1;aspect=fixed;" vertex="1" parent="1">
          <mxGeometry x="660" y="195" width="10" height="10" as="geometry" />
        </mxCell>
        <mxCell id="xs68yqe_Edm3CKneV39_-32" value="TipoReparto" style="text;html=1;align=center;verticalAlign=middle;resizable=0;points=[];autosize=1;strokeColor=none;fillColor=none;" vertex="1" parent="1">
          <mxGeometry x="667" y="185" width="90" height="30" as="geometry" />
        </mxCell>
        <mxCell id="xs68yqe_Edm3CKneV39_-34" value="" style="ellipse;whiteSpace=wrap;html=1;aspect=fixed;" vertex="1" parent="1">
          <mxGeometry x="200" y="340" width="10" height="10" as="geometry" />
        </mxCell>
        <mxCell id="xs68yqe_Edm3CKneV39_-35" value="CittaResidenza" style="text;html=1;align=center;verticalAlign=middle;resizable=0;points=[];autosize=1;strokeColor=none;fillColor=none;" vertex="1" parent="1">
          <mxGeometry x="210" y="330" width="100" height="30" as="geometry" />
        </mxCell>
        <mxCell id="xs68yqe_Edm3CKneV39_-36" value="" style="ellipse;whiteSpace=wrap;html=1;aspect=fixed;" vertex="1" parent="1">
          <mxGeometry x="200" y="360" width="10" height="10" as="geometry" />
        </mxCell>
        <mxCell id="xs68yqe_Edm3CKneV39_-37" value="ProvinciaResidenza" style="text;html=1;align=center;verticalAlign=middle;resizable=0;points=[];autosize=1;strokeColor=none;fillColor=none;" vertex="1" parent="1">
          <mxGeometry x="206" y="350" width="130" height="30" as="geometry" />
        </mxCell>
        <mxCell id="xs68yqe_Edm3CKneV39_-43" style="edgeStyle=orthogonalEdgeStyle;rounded=0;orthogonalLoop=1;jettySize=auto;html=1;entryX=0;entryY=0.5;entryDx=0;entryDy=0;" edge="1" parent="1" source="xs68yqe_Edm3CKneV39_-40" target="xs68yqe_Edm3CKneV39_-41">
          <mxGeometry relative="1" as="geometry" />
        </mxCell>
        <mxCell id="xs68yqe_Edm3CKneV39_-51" style="edgeStyle=orthogonalEdgeStyle;rounded=0;orthogonalLoop=1;jettySize=auto;html=1;entryX=0;entryY=0.5;entryDx=0;entryDy=0;endArrow=doubleBlock;endFill=1;" edge="1" parent="1" source="xs68yqe_Edm3CKneV39_-40" target="xs68yqe_Edm3CKneV39_-49">
          <mxGeometry relative="1" as="geometry" />
        </mxCell>
        <mxCell id="xs68yqe_Edm3CKneV39_-40" value="CittàResidenza" style="rounded=0;whiteSpace=wrap;html=1;sketch=1;curveFitting=1;jiggle=2;shadow=1;" vertex="1" parent="1">
          <mxGeometry x="80" y="440" width="150" height="80" as="geometry" />
        </mxCell>
        <mxCell id="xs68yqe_Edm3CKneV39_-41" value="" style="ellipse;whiteSpace=wrap;html=1;aspect=fixed;" vertex="1" parent="1">
          <mxGeometry x="200" y="560" width="10" height="10" as="geometry" />
        </mxCell>
        <mxCell id="xs68yqe_Edm3CKneV39_-42" value="Città" style="text;html=1;align=center;verticalAlign=middle;resizable=0;points=[];autosize=1;strokeColor=none;fillColor=none;" vertex="1" parent="1">
          <mxGeometry x="202" y="550" width="50" height="30" as="geometry" />
        </mxCell>
        <mxCell id="xs68yqe_Edm3CKneV39_-47" style="edgeStyle=orthogonalEdgeStyle;rounded=0;orthogonalLoop=1;jettySize=auto;html=1;entryX=0;entryY=0.5;entryDx=0;entryDy=0;" edge="1" parent="1" source="xs68yqe_Edm3CKneV39_-44" target="xs68yqe_Edm3CKneV39_-45">
          <mxGeometry relative="1" as="geometry" />
        </mxCell>
        <mxCell id="xs68yqe_Edm3CKneV39_-50" style="edgeStyle=orthogonalEdgeStyle;rounded=0;orthogonalLoop=1;jettySize=auto;html=1;entryX=1;entryY=0.5;entryDx=0;entryDy=0;" edge="1" parent="1" source="xs68yqe_Edm3CKneV39_-44" target="xs68yqe_Edm3CKneV39_-49">
          <mxGeometry relative="1" as="geometry" />
        </mxCell>
        <mxCell id="xs68yqe_Edm3CKneV39_-44" value="ProvinciaResidenza" style="rounded=0;whiteSpace=wrap;html=1;sketch=1;curveFitting=1;jiggle=2;shadow=1;" vertex="1" parent="1">
          <mxGeometry x="530" y="440" width="150" height="80" as="geometry" />
        </mxCell>
        <mxCell id="xs68yqe_Edm3CKneV39_-45" value="" style="ellipse;whiteSpace=wrap;html=1;aspect=fixed;" vertex="1" parent="1">
          <mxGeometry x="643" y="560" width="10" height="10" as="geometry" />
        </mxCell>
        <mxCell id="xs68yqe_Edm3CKneV39_-46" value="Provincia" style="text;html=1;align=center;verticalAlign=middle;resizable=0;points=[];autosize=1;strokeColor=none;fillColor=none;" vertex="1" parent="1">
          <mxGeometry x="649" y="550" width="70" height="30" as="geometry" />
        </mxCell>
        <mxCell id="xs68yqe_Edm3CKneV39_-49" value="Appartiene" style="rhombus;whiteSpace=wrap;html=1;sketch=1;curveFitting=1;jiggle=2;" vertex="1" parent="1">
          <mxGeometry x="349" y="440" width="89" height="80" as="geometry" />
        </mxCell>
      </root>
    </mxGraphModel>
  </diagram>
</mxfile>
